<svg width="1024" height="1024" viewBox="0 0 1024 1024" fill="none" xmlns="http://www.w3.org/2000/svg">
<rect width="1024" height="1024" fill="#181818"/>
<path d="M461.102 589.048C458.935 571.71 460.235 556.538 465.004 543.534C470.206 530.531 477.36 518.827 486.464 508.424C496.001 498.021 506.406 488.485 517.678 479.815C529.383 471.146 540.221 462.694 550.193 454.458C560.597 446.222 569.051 437.769 575.554 429.1C582.057 420.431 585.308 410.895 585.308 400.492C585.308 387.488 582.057 376.434 575.554 367.332C569.051 358.229 559.513 351.293 546.941 346.525C534.802 341.757 520.062 339.373 502.721 339.373C482.779 339.373 464.57 343.708 448.096 352.377C431.622 361.046 415.365 373.834 399.324 390.739L346 341.324C366.809 317.483 391.304 298.411 419.483 284.107C448.096 269.369 479.527 262 513.776 262C545.424 262 573.386 266.768 597.664 276.304C622.375 285.84 641.667 300.362 655.54 319.867C669.847 338.94 677 362.997 677 392.039C677 408.077 673.532 422.165 666.595 434.302C660.092 446.005 651.422 456.625 640.583 466.161C630.179 475.264 619.124 484.15 607.418 492.819C595.713 501.055 584.875 509.724 574.904 518.827C564.933 527.93 557.129 538.116 551.493 549.386C545.857 560.656 543.69 573.877 544.99 589.048H461.102ZM503.371 762C486.897 762 473.241 756.582 462.403 745.745C451.565 734.909 446.145 721.254 446.145 704.783C446.145 687.878 451.565 674.007 462.403 663.17C473.241 652.334 486.897 646.915 503.371 646.915C519.845 646.915 533.502 652.334 544.34 663.17C555.178 674.007 560.597 687.878 560.597 704.783C560.597 721.254 555.178 734.909 544.34 745.745C533.502 756.582 519.845 762 503.371 762Z" fill="#6F6F6F"/>
</svg>
