<?xml version="1.0" encoding="UTF-8"?>
<svg version="1.1" xmlns="http://www.w3.org/2000/svg" width="1024" height="1024">
<path d="M0 0 C337.92 0 675.84 0 1024 0 C1024 337.92 1024 675.84 1024 1024 C686.08 1024 348.16 1024 0 1024 C0 686.08 0 348.16 0 0 Z " fill="#101229" transform="translate(0,0)"/>
<path d="M0 0 C75.57 0 151.14 0 229 0 C229 40.51961969 229 40.51961969 218.77050781 51.06542969 C215.5218546 54.6151164 212.94573001 58.65024031 210.25 62.625 C209.07013895 64.31680187 207.88780297 66.00688015 206.703125 67.6953125 C202.11244587 74.26710289 197.53729117 80.84968052 192.96191406 87.43212891 C188.09069317 94.43818057 183.20162744 101.43151505 178.30444336 108.41943359 C173.04958672 115.9212409 167.81848265 123.43948285 162.59179688 130.9609375 C158.99156009 136.14113432 155.38151262 141.31423918 151.76196289 146.48095703 C148.64392179 150.9387578 145.54186396 155.40766951 142.4375 159.875 C137.30408485 167.2587445 132.16105891 174.63555164 127 182 C121.98491185 189.15622492 116.98752298 196.3245373 112 203.5 C103.41616183 215.84840843 94.79164621 228.16807914 86.15625 240.48046875 C85.52348145 241.38321533 84.89071289 242.28596191 84.23876953 243.21606445 C83.03201282 244.93767663 81.82469254 246.65889396 80.61669922 248.37963867 C80.07029785 249.15927979 79.52389648 249.9389209 78.9609375 250.7421875 C78.48446777 251.4213623 78.00799805 252.10053711 77.51708984 252.80029297 C75.64674808 255.51219822 73.82736535 258.25895197 72 261 C150.21 261.495 150.21 261.495 230 262 C230 277.51 230 293.02 230 309 C154.43 309 78.86 309 1 309 C1 273 1 273 9 262 C10.72118091 259.5279851 12.43192188 257.05329463 14.125 254.5625 C18.3171676 248.4321142 22.54999783 242.33168987 26.8125 236.25 C27.40256836 235.40808105 27.99263672 234.56616211 28.60058594 233.69873047 C29.80367925 231.98277381 31.00696764 230.26695391 32.21044922 228.55126953 C40.16164531 217.21566256 48.09680899 205.86913675 56 194.5 C63.87682997 183.16878492 71.78881741 171.86247025 79.70898438 160.56152344 C86.4892934 150.8858601 93.25626587 141.20119987 100 131.5 C107.87682997 120.16878492 115.78881741 108.86247025 123.70898438 97.56152344 C130.65183749 87.65390579 137.58442498 77.7391818 144.5 67.8125 C145.1585498 66.86850342 145.81709961 65.92450684 146.49560547 64.9519043 C147.12611816 64.04609619 147.75663086 63.14028809 148.40625 62.20703125 C148.95603516 61.4178833 149.50582031 60.62873535 150.07226562 59.81567383 C152.7516818 55.90208382 155.36909154 51.94636269 158 48 C79.79 47.505 79.79 47.505 0 47 C0 31.49 0 15.98 0 0 Z " fill="#5353C4" transform="translate(666,358)"/>
<path d="M0 0 C75.57 0 151.14 0 229 0 C229 40.50832573 229 40.50832573 217.83007812 52.00146484 C214.63945947 55.48577705 212.1536924 59.43713769 209.5625 63.375 C208.47952195 64.97336336 207.3935667 66.56971343 206.3046875 68.1640625 C205.76166992 68.96102539 205.21865234 69.75798828 204.65917969 70.57910156 C201.86462605 74.65661684 199.0270717 78.70376041 196.1875 82.75 C191.10794388 89.98824317 186.04613634 97.23841281 181 104.5 C175.44542204 112.49156671 169.8744689 120.47136288 164.2890625 128.44140625 C159.8456846 134.78478058 155.42029955 141.14052689 151 147.5 C146.01251124 154.67548671 141.01503515 161.84373801 136 169 C128.30567962 179.9807786 120.65243718 190.99001024 113 202 C110.29204029 205.89609323 107.5837765 209.79197459 104.875 213.6875 C104.21363037 214.63866699 103.55226074 215.58983398 102.87084961 216.56982422 C97.97374343 223.6090754 93.0611047 230.63733339 88.13037109 237.65307617 C82.6967953 245.39766922 77.36072834 253.20257697 72 261 C150.21 261.495 150.21 261.495 230 262 C230 277.51 230 293.02 230 309 C154.43 309 78.86 309 1 309 C1 268.48038031 1 268.48038031 11.22949219 257.93457031 C14.4781454 254.3848836 17.05426999 250.34975969 19.75 246.375 C20.92986105 244.68319813 22.11219703 242.99311985 23.296875 241.3046875 C27.88604233 234.73506132 32.45953704 228.15454594 37.03369141 221.57446289 C44.23395767 211.21940492 51.47046438 200.88985739 58.70898438 190.56152344 C65.4892934 180.8858601 72.25626587 171.20119987 79 161.5 C86.87682997 150.16878492 94.78881741 138.86247025 102.70898438 127.56152344 C110.17045985 116.91381927 117.61240665 106.25287823 125.03198242 95.57592773 C128.23603329 90.96688371 131.44438733 86.36103585 134.66796875 81.765625 C135.26158203 80.91935547 135.85519531 80.07308594 136.46679688 79.20117188 C137.54130669 77.67051373 138.61668153 76.14046203 139.69335938 74.61132812 C145.88092102 65.79778734 151.91753386 56.88975821 158 48 C79.79 47.505 79.79 47.505 0 47 C0 31.49 0 15.98 0 0 Z " fill="#5353C4" transform="translate(128,358)"/>
<path d="M0 0 C75.57 0 151.14 0 229 0 C229 36 229 36 219 50 C216.4506272 53.64087073 213.9071181 57.28473292 211.375 60.9375 C209.98959731 62.93230137 208.60418022 64.92709275 207.21875 66.921875 C206.52136719 67.92669922 205.82398438 68.93152344 205.10546875 69.96679688 C201.69806289 74.87561069 198.28689854 79.78180813 194.875 84.6875 C194.21032715 85.64325928 193.5456543 86.59901855 192.86083984 87.58374023 C188.01686326 94.54599264 183.15611372 101.49634728 178.28857422 108.44213867 C173.84532185 114.7852428 169.4201321 121.1407678 165 127.5 C159.44532338 135.49149836 153.87446916 143.4713625 148.2890625 151.44140625 C143.84568457 157.78478063 139.42031242 164.14053578 135 170.5 C127.13472073 181.81531351 119.23418858 193.10569714 111.32470703 204.39013672 C106.86913514 210.75038056 102.4321779 217.12343754 98 223.5 C94.2379442 228.91245959 90.47594876 234.32472058 86.6875 239.71875 C81.75314083 246.78575592 76.88302078 253.89742433 72 261 C150.21 261.495 150.21 261.495 230 262 C230 277.51 230 293.02 230 309 C154.43 309 78.86 309 1 309 C1 273 1 273 9 262 C10.76272813 259.46545589 12.51516682 256.92818275 14.25 254.375 C18.01766997 248.86334305 21.82759554 243.38494581 25.6875 237.9375 C32.49298428 228.32765606 39.20933098 218.65637735 45.92675781 208.98486328 C54.83395191 196.16110504 63.75078944 183.34434425 72.71142578 170.55786133 C77.15467824 164.21475708 81.57983743 157.85921113 86 151.5 C93.87677544 140.16874721 101.78881758 128.86247 109.70898438 117.56152344 C117.1653287 106.92114154 124.60240478 96.26770149 132.01660156 85.59790039 C135.30731621 80.86399519 138.60351921 76.1341275 141.9140625 71.4140625 C142.53925781 70.52267578 143.16445313 69.63128906 143.80859375 68.71289062 C144.97430598 67.05206406 146.14089604 65.39185308 147.30859375 63.73242188 C147.83839844 62.97767578 148.36820313 62.22292969 148.9140625 61.4453125 C149.3673291 60.80094238 149.8205957 60.15657227 150.28759766 59.49267578 C152.89994139 55.68999122 155.44086856 51.83869716 158 48 C79.79 47.505 79.79 47.505 0 47 C0 31.49 0 15.98 0 0 Z " fill="#5353C4" transform="translate(397,358)"/>
</svg>
